<svg width="179" height="40" viewBox="0 0 179 40" fill="none" xmlns="http://www.w3.org/2000/svg">
<path d="M40 0H0V40H40V0Z" fill="#FF0032"/>
<path d="M40 0H0V40H40V0Z" fill="#FF0032"/>
<path d="M31.9529 10.267C33.8626 10.267 34.897 9.74213 34.897 8.05983V7.18504C34.897 5.59695 33.8626 5.04516 31.9529 5.04516H28.5472V10.267H31.9529ZM25.5871 3.01294H32.1438C35.8519 3.01294 37.8889 4.17036 37.8889 7.65608C37.8889 11.1283 35.8519 12.2992 32.1438 12.2992H25.5871V3.01294Z" fill="white"/>
<path d="M3.07709 3.01294H11.1186C14.0444 3.01294 15.3789 4.17683 15.3789 6.15677C15.3789 8.19022 14.0444 9.35411 11.1186 9.35411H6.25948V12.2438H3.07709V3.01294ZM12.1623 6.35744V5.99623C12.1623 5.39422 11.7174 4.93937 10.6738 4.93937H6.25948V7.42768H10.6738C11.7174 7.42768 12.1623 6.99958 12.1623 6.35744Z" fill="white"/>
<path d="M25.5871 27.5112H37.8255V29.6183H29.2825V31.4742H36.0573V33.5534H29.2825V37.1396H25.5871V27.5112Z" fill="white"/>
<path d="M169.898 14.5086H163.815V11.7177H179V14.5086H172.917V28.61H169.898V14.5086Z" fill="black"/>
<path d="M144.513 11.7177H153.973C157.338 11.7177 159.151 13.6027 159.151 16.9567C159.151 19.6252 158.059 21.3389 156.005 21.9754L159.697 28.61H156.289L152.772 22.2692H147.572V28.61H144.513V11.7177ZM156.071 17.2995V16.6874C156.071 15.243 155.372 14.2882 153.558 14.2882H147.572V19.6742H153.558C155.35 19.6742 156.071 18.7194 156.071 17.2995Z" fill="black"/>
<path d="M125.21 11.4785H140.293V14.147H128.777V18.4558H137.643V21.0263H128.777V25.7023H140.395V28.3708H125.21V11.4785Z" fill="black"/>
<path d="M118.562 11.4785H121.092L115.302 28.3708H111.679L105.908 11.4785H108.784L113.653 25.8982L118.562 11.4785Z" fill="black"/>
<path d="M97.6741 28.61L89.3994 15.0227V28.61H86.6051V11.7177H90.7424L98.9954 25.2805V11.7177H101.79V28.61H97.6741Z" fill="black"/>
<path d="M79.8699 20.4898V18.81C79.8699 15.2139 78.1992 13.8181 74.895 13.8181C71.5721 13.8181 69.92 15.2139 69.92 18.81V20.4898C69.92 24.1332 71.5721 25.5528 74.895 25.5528C78.1992 25.5528 79.8699 24.1569 79.8699 20.4898ZM67.3026 19.6144C67.3026 13.4159 69.9386 11.2393 74.895 11.2393C79.8513 11.2393 82.4873 13.4159 82.4873 19.6144C82.4873 25.9076 79.8513 28.1316 74.895 28.1316C69.9386 28.1316 67.3026 25.9076 67.3026 19.6144Z" fill="black"/>
<path d="M48 19.4698C48 13.2712 50.8218 11 55.775 11C60.2411 11 62.7584 12.5615 63.1644 16.5834H60.302C59.9366 14.2412 58.4547 13.5788 55.775 13.5788C52.7909 13.5788 50.8624 14.7381 50.8624 18.5944V20.2505C50.8624 24.0359 52.7503 25.3135 55.775 25.3135C58.3532 25.3135 59.8554 24.7457 60.3223 22.4981H63.1847C62.6772 26.3545 60.2005 27.8923 55.775 27.8923C50.8218 27.8923 48 25.692 48 19.4698Z" fill="black"/>
</svg>
